<?xml version="1.0" standalone="no"?>
<svg width="90" height="104" version="1.1" xmlns="http://www.w3.org/2000/svg">
    <g transform="translate(0 78)">
        <polygon points="00 26 15 00 30 26" fill="#1ACC4F"/>
        <polygon points="15 00 30 26 45 00" fill="#79FFC7"/>
        <polygon points="30 26 45 00 60 26" fill="#1ACC4F"/>
        <polygon points="45 00 60 26 75 00" fill="#79FFC7"/>
        <polygon points="60 26 75 00 90 26" fill="#1ACC4F"/>
    </g>
    <g transform="translate(0 52)">
        <polygon points="00 00 15 26 30 00" fill="#79FFC7"/>
        <polygon points="15 26 30 00 45 26" fill="#1ACC4F"/>
        <polygon points="30 00 45 26 60 00" fill="#79FFC7"/>
        <polygon points="45 26 60 00 75 26" fill="#1ACC4F"/>
        <polygon points="60 00 75 26 90 00" fill="#79FFC7"/>
    </g>
    <g transform="translate(0 26)">
        <polygon points="00 26 15 00 30 26" fill="#1ACC4F"/>
        <polygon points="15 00 30 26 45 00" fill="#79FFC7"/>
        <polygon points="30 26 45 00 60 26" fill="#1ACC4F"/>
        <polygon points="45 00 60 26 75 00" fill="#79FFC7"/>
        <polygon points="60 26 75 00 90 26" fill="#1ACC4F"/>
    </g>
    <g transform="translate(0 0)">
        <polygon points="00 00 15 26 30 00" fill="#79FFC7"/>
        <polygon points="15 26 30 00 45 26" fill="#1ACC4F"/>
        <polygon points="30 00 45 26 60 00" fill="#79FFC7"/>
        <polygon points="45 26 60 00 75 26" fill="#1ACC4F"/>
        <polygon points="60 00 75 26 90 00" fill="#79FFC7"/>
    </g>
</svg>
