<?xml version="1.0" encoding="UTF-8" standalone="no"?>
<!-- Created with Inkscape (http://www.inkscape.org/) -->

<svg
   xmlns:dc="http://purl.org/dc/elements/1.1/"
   xmlns:cc="http://creativecommons.org/ns#"
   xmlns:rdf="http://www.w3.org/1999/02/22-rdf-syntax-ns#"
   xmlns:svg="http://www.w3.org/2000/svg"
   xmlns="http://www.w3.org/2000/svg"
   xmlns:sodipodi="http://sodipodi.sourceforge.net/DTD/sodipodi-0.dtd"
   xmlns:inkscape="http://www.inkscape.org/namespaces/inkscape"
   width="315"
   height="180"
   id="svg3860"
   version="1.1"
   inkscape:version="0.48.3.1 r9886"
   sodipodi:docname="logo-good-wip.svg"
   inkscape:export-filename="/home/mathphreak/documents/komodo/card.png"
   inkscape:export-xdpi="90"
   inkscape:export-ydpi="90">
  <defs
     id="defs3862" />
  <sodipodi:namedview
     id="base"
     pagecolor="#ffffff"
     bordercolor="#666666"
     borderopacity="1.0"
     inkscape:pageopacity="0.0"
     inkscape:pageshadow="2"
     inkscape:zoom="2"
     inkscape:cx="116.32956"
     inkscape:cy="106.3383"
     inkscape:document-units="px"
     inkscape:current-layer="layer1"
     showgrid="false"
     units="in"
     inkscape:window-width="1366"
     inkscape:window-height="719"
     inkscape:window-x="0"
     inkscape:window-y="29"
     inkscape:window-maximized="1" />
  <metadata
     id="metadata3865">
    <rdf:RDF>
      <cc:Work
         rdf:about="">
        <dc:format>image/svg+xml</dc:format>
        <dc:type
           rdf:resource="http://purl.org/dc/dcmitype/StillImage" />
        <dc:title />
      </cc:Work>
    </rdf:RDF>
  </metadata>
  <g
     inkscape:label="Layer 1"
     inkscape:groupmode="layer"
     id="layer1"
     transform="translate(0,-872.35975)">
    <g
       id="g3096">
      <g
         transform="translate(26.5,988.3598)"
         id="g3372">
        <polygon
           style="fill:#1acc4f"
           points="0,26 15,0 30,26 "
           id="polygon3374" />
        <polygon
           style="fill:#79ffc7"
           points="15,0 30,26 45,0 "
           id="polygon3376" />
        <polygon
           style="fill:#1acc4f"
           points="30,26 45,0 60,26 "
           id="polygon3378" />
        <polygon
           style="fill:#79ffc7"
           points="45,0 60,26 75,0 "
           id="polygon3380" />
        <polygon
           style="fill:#1acc4f"
           points="60,26 75,0 90,26 "
           id="polygon3382" />
      </g>
      <g
         transform="translate(26.5,962.3598)"
         id="g3384">
        <polygon
           style="fill:#79ffc7"
           points="0,0 15,26 30,0 "
           id="polygon3386" />
        <polygon
           style="fill:#1acc4f"
           points="15,26 30,0 45,26 "
           id="polygon3388" />
        <polygon
           style="fill:#79ffc7"
           points="30,0 45,26 60,0 "
           id="polygon3390" />
        <polygon
           style="fill:#1acc4f"
           points="45,26 60,0 75,26 "
           id="polygon3392" />
        <polygon
           style="fill:#79ffc7"
           points="60,0 75,26 90,0 "
           id="polygon3394" />
      </g>
      <g
         transform="translate(26.5,936.35975)"
         id="g3396">
        <polygon
           style="fill:#1acc4f"
           points="0,26 15,0 30,26 "
           id="polygon3398" />
        <polygon
           style="fill:#79ffc7"
           points="15,0 30,26 45,0 "
           id="polygon3400" />
        <polygon
           style="fill:#1acc4f"
           points="30,26 45,0 60,26 "
           id="polygon3402" />
        <polygon
           style="fill:#79ffc7"
           points="45,0 60,26 75,0 "
           id="polygon3404" />
        <polygon
           style="fill:#1acc4f"
           points="60,26 75,0 90,26 "
           id="polygon3406" />
      </g>
      <g
         id="g3408"
         transform="translate(26.5,910.35975)">
        <polygon
           style="fill:#79ffc7"
           points="0,0 15,26 30,0 "
           id="polygon3410" />
        <polygon
           style="fill:#1acc4f"
           points="15,26 30,0 45,26 "
           id="polygon3412" />
        <polygon
           style="fill:#79ffc7"
           points="30,0 45,26 60,0 "
           id="polygon3414" />
        <polygon
           style="fill:#1acc4f"
           points="45,26 60,0 75,26 "
           id="polygon3416" />
        <polygon
           style="fill:#79ffc7"
           points="60,0 75,26 90,0 "
           id="polygon3418" />
      </g>
    </g>
    <g
       style="font-size:40px;font-style:normal;font-weight:normal;line-height:125%;letter-spacing:0px;word-spacing:0px;fill:#000000;fill-opacity:1;stroke:none;font-family:Sans"
       id="text3044"
       transform="translate(0,-0.04889)">
      <path
         d="m 140.88,939.60864 0,-8.84 6.76,-6.28 12,15.12 1.04,0 -12.44,-15.68 13.64,-12.72 -1.16,0 -19.84,18.44 0,-18.4 -0.8,0 0,28.36 0.8,0"
         style="font-variant:normal;font-weight:300;font-stretch:normal;font-family:Raleway;-inkscape-font-specification:Raleway Light"
         id="path3036"
         inkscape:connector-curvature="0" />
      <path
         d="m 175.87687,940.00864 c 5.56,-0.12 9.88,-5.04 9.88,-10.72 0,-5.15999 -3.92,-10.76 -9.88,-10.76 -5.43999,0 -9.88,4.96001 -9.88,10.76 0,5.4 4.04001,10.6 9.88,10.72 m -9.08,-10.72 c 0,-4.71999 3.60001,-9.96 9.08,-9.96 5.12,0 9.08,4.80001 9.08,9.96 0,4.72 -3.6,9.92 -9.08,9.92 -5.27999,0 -8.88,-4.76 -9.08,-9.92"
         style="font-variant:normal;font-weight:300;font-stretch:normal;font-family:Raleway;-inkscape-font-specification:Raleway Light"
         id="path3038"
         inkscape:connector-curvature="0" />
      <path
         d="m 220.9775,928.04864 c 0,-4.19999 -0.64001,-9.52 -6.44,-9.52 -3.8,0 -6.44,2.52001 -8.24,6.04 -0.32,-3.19999 -2.4,-6.04 -6.28,-6.04 -3.4,0 -6.32,2.16001 -8.08,5.68 l 0,-5.36 -0.8,0 0,20.76 0.8,0 0,-13.12 c 0.96,-3.59999 3.88,-7.16 8.08,-7.16 4.56,0 5.64,3.56001 5.64,8.72 l 0,11.56 0.8,0 0,-13.08 c 0.08,-0.16 0.48,-2.04 1.76,-3.8 1.48,-2 3.64,-3.4 6.32,-3.4 4.96,0 5.64,4.40001 5.64,8.72 l 0,11.56 0.8,0 0,-11.56"
         style="font-variant:normal;font-weight:300;font-stretch:normal;font-family:Raleway;-inkscape-font-specification:Raleway Light"
         id="path3040"
         inkscape:connector-curvature="0" />
      <path
         d="m 236.2675,940.00864 c 5.55999,-0.12 9.88,-5.04 9.88,-10.72 0,-5.15999 -3.92001,-10.76 -9.88,-10.76 -5.43999,0 -9.88,4.96001 -9.88,10.76 0,5.4 4.04001,10.6 9.88,10.72 m -9.08,-10.72 c 0,-4.71999 3.60001,-9.96 9.08,-9.96 5.11999,0 9.08,4.80001 9.08,9.96 0,4.72 -3.60001,9.92 -9.08,9.92 -5.27999,0 -8.88,-4.76 -9.08,-9.92"
         style="font-variant:normal;font-weight:300;font-stretch:normal;font-family:Raleway;-inkscape-font-specification:Raleway Light"
         id="path3042"
         inkscape:connector-curvature="0" />
      <path
         d="m 268.56812,938.80864 c -0.39999,0 -0.6,-0.32 -0.63999,-0.8 l 0,-27.6 -0.80001,0 0,13.28 c -1.91999,-2.75999 -4.68,-5.16 -8.48,-5.16 -5.55999,0 -9.64,5.04001 -9.64,10.76 0,5.32 4.20001,10.72 10,10.72 3.16,0 6.36001,-1.96 8.12,-4.72 l 0,2.72 c 0,0.8 0.52001,1.56 1.44,1.6 l 0,-0.8 m -1.44,-5.96 c -0.08,3.4 -4.88,6.36 -8.12,6.36 -5.11999,0 -9.2,-4.72 -9.2,-9.92 0,-4.95999 3.44001,-9.96 8.84,-9.96 3.36,0 7.36001,2.72001 8.48,6.04 l 0,7.48"
         style="font-variant:normal;font-weight:300;font-stretch:normal;font-family:Raleway;-inkscape-font-specification:Raleway Light"
         id="path3044"
         inkscape:connector-curvature="0" />
      <path
         d="m 283.53312,940.00864 c 5.56,-0.12 9.88,-5.04 9.88,-10.72 0,-5.15999 -3.92,-10.76 -9.88,-10.76 -5.43999,0 -9.88,4.96001 -9.88,10.76 0,5.4 4.04001,10.6 9.88,10.72 m -9.08,-10.72 c 0,-4.71999 3.60001,-9.96 9.08,-9.96 5.12,0 9.08001,4.80001 9.08001,9.96 0,4.72 -3.60001,9.92 -9.08001,9.92 -5.27999,0 -8.88,-4.76 -9.08,-9.92"
         style="font-variant:normal;font-weight:300;font-stretch:normal;font-family:Raleway;-inkscape-font-specification:Raleway Light"
         id="path3046"
         inkscape:connector-curvature="0" />
    </g>
    <g
       style="font-size:40px;font-style:normal;font-weight:normal;line-height:125%;letter-spacing:0px;word-spacing:0px;fill:#000000;fill-opacity:1;stroke:none;font-family:Sans"
       id="text3013"
       transform="translate(0,0.0251)">
      <path
         d="m 137.23687,992.40467 1.35,0 0,15.84003 0.12,0 9.24,-8.67003 1.65,0 -5.91,5.58003 6.87,8.82 -1.53,0 -6.27,-8.01 -4.17,3.93 0,4.08 -1.35,0 0,-21.57003"
         style="font-size:30px;font-variant:normal;font-stretch:normal;font-family:Source Code Pro;-inkscape-font-specification:Source Code Pro"
         id="path3017"
         inkscape:connector-curvature="0" />
      <path
         d="m 153.54516,1006.8047 c -1e-5,-1.2 0.17999,-2.27 0.54,-3.21 0.37999,-0.96 0.88999,-1.76 1.53,-2.4 0.63999,-0.64 1.37999,-1.13 2.22,-1.47003 0.85999,-0.33998 1.75999,-0.50998 2.7,-0.51 0.93999,2e-5 1.82999,0.17002 2.67,0.51 0.85998,0.34003 1.60998,0.83003 2.25,1.47003 0.63998,0.64 1.13998,1.44 1.5,2.4 0.37998,0.94 0.56998,2.01 0.57,3.21 -2e-5,1.2 -0.19002,2.27 -0.57,3.21 -0.36002,0.92 -0.86002,1.7 -1.5,2.34 -0.64002,0.64 -1.39002,1.13 -2.25,1.47 -0.84001,0.34 -1.73001,0.51 -2.67,0.51 -0.94001,0 -1.84001,-0.17 -2.7,-0.51 -0.84001,-0.34 -1.58001,-0.83 -2.22,-1.47 -0.64001,-0.64 -1.15001,-1.42 -1.53,-2.34 -0.36001,-0.94 -0.54001,-2.01 -0.54,-3.21 m 1.41,0 c -1e-5,0.94 0.13999,1.8 0.42,2.58 0.27999,0.78 0.65999,1.45 1.14,2.01 0.49999,0.56 1.08999,1 1.77,1.32 0.67999,0.3 1.42999,0.45 2.25,0.45 0.79999,0 1.53999,-0.15 2.22,-0.45 0.69998,-0.32 1.28998,-0.76 1.77,-1.32 0.49998,-0.56 0.88998,-1.23 1.17,-2.01 0.27998,-0.78 0.41998,-1.64 0.42,-2.58 -2e-5,-0.96 -0.14002,-1.83 -0.42,-2.61 -0.28002,-0.78 -0.67002,-1.45 -1.17,-2.01 -0.48002,-0.58 -1.07002,-1.02 -1.77,-1.32 -0.68001,-0.32 -1.42001,-0.48 -2.22,-0.48 -0.82001,0 -1.57001,0.16 -2.25,0.48 -0.68001,0.3 -1.27001,0.74 -1.77,1.32 -0.48001,0.56 -0.86001,1.23 -1.14,2.01 -0.28001,0.78 -0.42001,1.65 -0.42,2.61"
         style="font-size:30px;font-variant:normal;font-stretch:normal;font-family:Source Code Pro;-inkscape-font-specification:Source Code Pro"
         id="path3019"
         inkscape:connector-curvature="0" />
      <path
         d="m 171.77344,999.57467 1.08,0 0.15,1.95003 0.06,0 c 0.41999,-0.7 0.86999,-1.26 1.35,-1.68003 0.49999,-0.41999 1.14999,-0.62998 1.95,-0.63 1.53999,2e-5 2.49999,0.85003 2.88,2.55003 0.51999,-0.82 1.03999,-1.45 1.56,-1.89003 0.51999,-0.43999 1.17999,-0.65998 1.98,-0.66 0.99998,2e-5 1.76998,0.36001 2.31,1.08003 0.53998,0.72 0.80998,1.8 0.81,3.24 l 0,10.44 -1.29,0 0,-10.29 c -2e-5,-2.18 -0.70002,-3.27 -2.1,-3.27 -0.64001,0 -1.20001,0.23 -1.68,0.69 -0.46001,0.44 -0.93001,1.11 -1.41,2.01 l 0,10.86 -1.2,0 0,-10.29 c -1e-5,-2.18 -0.69001,-3.27 -2.07,-3.27 -0.66001,0 -1.23001,0.23 -1.71,0.69 -0.46001,0.44 -0.92001,1.11 -1.38,2.01 l 0,10.86 -1.29,0 0,-14.40003"
         style="font-size:30px;font-variant:normal;font-stretch:normal;font-family:Source Code Pro;-inkscape-font-specification:Source Code Pro"
         id="path3021"
         inkscape:connector-curvature="0" />
      <path
         d="m 189.52172,1006.8047 c 0,-1.2 0.18,-2.27 0.54,-3.21 0.38,-0.96 0.89,-1.76 1.53,-2.4 0.63999,-0.64 1.37999,-1.13 2.22,-1.47003 0.85999,-0.33998 1.75999,-0.50998 2.7,-0.51 0.93999,2e-5 1.82999,0.17002 2.67,0.51 0.85999,0.34003 1.60999,0.83003 2.25,1.47003 0.63998,0.64 1.13998,1.44 1.5,2.4 0.37998,0.94 0.56998,2.01 0.57,3.21 -2e-5,1.2 -0.19002,2.27 -0.57,3.21 -0.36002,0.92 -0.86002,1.7 -1.5,2.34 -0.64001,0.64 -1.39001,1.13 -2.25,1.47 -0.84001,0.34 -1.73001,0.51 -2.67,0.51 -0.94001,0 -1.84001,-0.17 -2.7,-0.51 -0.84001,-0.34 -1.58001,-0.83 -2.22,-1.47 -0.64,-0.64 -1.15,-1.42 -1.53,-2.34 -0.36,-0.94 -0.54,-2.01 -0.54,-3.21 m 1.41,0 c 0,0.94 0.14,1.8 0.42,2.58 0.27999,0.78 0.65999,1.45 1.14,2.01 0.49999,0.56 1.08999,1 1.77,1.32 0.67999,0.3 1.42999,0.45 2.25,0.45 0.79999,0 1.53999,-0.15 2.22,-0.45 0.69999,-0.32 1.28999,-0.76 1.77,-1.32 0.49999,-0.56 0.88998,-1.23 1.17,-2.01 0.27998,-0.78 0.41998,-1.64 0.42,-2.58 -2e-5,-0.96 -0.14002,-1.83 -0.42,-2.61 -0.28002,-0.78 -0.67001,-1.45 -1.17,-2.01 -0.48001,-0.58 -1.07001,-1.02 -1.77,-1.32 -0.68001,-0.32 -1.42001,-0.48 -2.22,-0.48 -0.82001,0 -1.57001,0.16 -2.25,0.48 -0.68001,0.3 -1.27001,0.74 -1.77,1.32 -0.48001,0.56 -0.86001,1.23 -1.14,2.01 -0.28,0.78 -0.42,1.65 -0.42,2.61"
         style="font-size:30px;font-variant:normal;font-stretch:normal;font-family:Source Code Pro;-inkscape-font-specification:Source Code Pro"
         id="path3023"
         inkscape:connector-curvature="0" />
      <path
         d="m 207.51,1006.8047 c 0,-1.16 0.18,-2.21 0.54,-3.15 0.38,-0.94 0.88,-1.74 1.5,-2.4 0.64,-0.66 1.35999,-1.16 2.16,-1.50003 0.81999,-0.35999 1.67999,-0.53998 2.58,-0.54 0.93999,2e-5 1.77999,0.18001 2.52,0.54 0.75999,0.36003 1.51999,0.86003 2.28,1.50003 l -0.09,-2.91003 0,-5.94 1.35,0 0,21.57003 -1.14,0 -0.15,-2.13 -0.06,0 c -0.64001,0.66 -1.40001,1.24 -2.28,1.74 -0.88001,0.5 -1.83001,0.75 -2.85,0.75 -0.94001,0 -1.80001,-0.16 -2.58,-0.48 -0.78001,-0.34 -1.45,-0.83 -2.01,-1.47 -0.56,-0.64 -1,-1.42 -1.32,-2.34 -0.3,-0.94 -0.45,-2.02 -0.45,-3.24 m 1.41,0 c 0,0.96 0.11,1.83 0.33,2.61 0.24,0.78 0.58,1.45 1.02,2.01 0.43999,0.54 0.97999,0.97 1.62,1.29 0.63999,0.3 1.35999,0.45 2.16,0.45 0.83999,0 1.66999,-0.23 2.49,-0.69 0.83999,-0.46 1.65999,-1.11 2.46,-1.95 l 0,-8.01 c -0.82001,-0.76 -1.61001,-1.3 -2.37,-1.62 -0.74001,-0.34 -1.49001,-0.51 -2.25,-0.51 -0.76001,0 -1.47001,0.17 -2.13,0.51 -0.66001,0.32 -1.24001,0.77 -1.74,1.35 -0.5,0.56 -0.89,1.24 -1.17,2.04 -0.28,0.78 -0.42,1.62 -0.42,2.52"
         style="font-size:30px;font-variant:normal;font-stretch:normal;font-family:Source Code Pro;-inkscape-font-specification:Source Code Pro"
         id="path3025"
         inkscape:connector-curvature="0" />
      <path
         d="m 225.49828,1006.8047 c 0,-1.2 0.18,-2.27 0.54,-3.21 0.38,-0.96 0.89,-1.76 1.53,-2.4 0.64,-0.64 1.38,-1.13 2.22,-1.47003 0.85999,-0.33998 1.75999,-0.50998 2.7,-0.51 0.93999,2e-5 1.82999,0.17002 2.67,0.51 0.85999,0.34003 1.60999,0.83003 2.25,1.47003 0.63999,0.64 1.13999,1.44 1.5,2.4 0.37999,0.94 0.56999,2.01 0.57,3.21 -1e-5,1.2 -0.19001,2.27 -0.57,3.21 -0.36001,0.92 -0.86001,1.7 -1.5,2.34 -0.64001,0.64 -1.39001,1.13 -2.25,1.47 -0.84001,0.34 -1.73001,0.51 -2.67,0.51 -0.94001,0 -1.84001,-0.17 -2.7,-0.51 -0.84,-0.34 -1.58,-0.83 -2.22,-1.47 -0.64,-0.64 -1.15,-1.42 -1.53,-2.34 -0.36,-0.94 -0.54,-2.01 -0.54,-3.21 m 1.41,0 c 0,0.94 0.14,1.8 0.42,2.58 0.28,0.78 0.66,1.45 1.14,2.01 0.5,0.56 1.09,1 1.77,1.32 0.67999,0.3 1.42999,0.45 2.25,0.45 0.79999,0 1.53999,-0.15 2.22,-0.45 0.69999,-0.32 1.28999,-0.76 1.77,-1.32 0.49999,-0.56 0.88999,-1.23 1.17,-2.01 0.27999,-0.78 0.41999,-1.64 0.42,-2.58 -10e-6,-0.96 -0.14001,-1.83 -0.42,-2.61 -0.28001,-0.78 -0.67001,-1.45 -1.17,-2.01 -0.48001,-0.58 -1.07001,-1.02 -1.77,-1.32 -0.68001,-0.32 -1.42001,-0.48 -2.22,-0.48 -0.82001,0 -1.57001,0.16 -2.25,0.48 -0.68,0.3 -1.27,0.74 -1.77,1.32 -0.48,0.56 -0.86,1.23 -1.14,2.01 -0.28,0.78 -0.42,1.65 -0.42,2.61"
         style="font-size:30px;font-variant:normal;font-stretch:normal;font-family:Source Code Pro;-inkscape-font-specification:Source Code Pro"
         id="path3027"
         inkscape:connector-curvature="0" />
      <path
         d="m 248.67656,1012.3847 c 0,-0.64 0.18,-1.12 0.54,-1.44 0.37999,-0.34 0.79999,-0.51 1.26,-0.51 0.45999,0 0.86999,0.17 1.23,0.51 0.37999,0.32 0.56999,0.8 0.57,1.44 -1e-5,0.62 -0.19001,1.1 -0.57,1.44 -0.36001,0.34 -0.77001,0.51 -1.23,0.51 -0.46001,0 -0.88001,-0.17 -1.26,-0.51 -0.36,-0.34 -0.54,-0.82 -0.54,-1.44"
         style="font-size:30px;font-variant:normal;font-stretch:normal;font-family:Source Code Pro;-inkscape-font-specification:Source Code Pro"
         id="path3029"
         inkscape:connector-curvature="0" />
      <path
         d="m 261.71484,999.57467 1.08,0 0.15,1.95003 0.06,0 c 0.42,-0.7 0.87,-1.26 1.35,-1.68003 0.5,-0.41999 1.15,-0.62998 1.95,-0.63 1.54,2e-5 2.49999,0.85003 2.88,2.55003 0.51999,-0.82 1.03999,-1.45 1.56,-1.89003 0.51999,-0.43999 1.17999,-0.65998 1.98,-0.66 0.99999,2e-5 1.76999,0.36001 2.31,1.08003 0.53999,0.72 0.80999,1.8 0.81,3.24 l 0,10.44 -1.29,0 0,-10.29 c -1e-5,-2.18 -0.70001,-3.27 -2.1,-3.27 -0.64001,0 -1.20001,0.23 -1.68,0.69 -0.46001,0.44 -0.93001,1.11 -1.41,2.01 l 0,10.86 -1.2,0 0,-10.29 c 0,-2.18 -0.69,-3.27 -2.07,-3.27 -0.66,0 -1.23,0.23 -1.71,0.69 -0.46,0.44 -0.92,1.11 -1.38,2.01 l 0,10.86 -1.29,0 0,-14.40003"
         style="font-size:30px;font-variant:normal;font-stretch:normal;font-family:Source Code Pro;-inkscape-font-specification:Source Code Pro"
         id="path3031"
         inkscape:connector-curvature="0" />
      <path
         d="m 279.76312,1006.8047 c 0,-1.18 0.2,-2.24 0.60001,-3.18 0.41999,-0.94 0.95999,-1.73 1.61999,-2.37 0.68,-0.66 1.45,-1.16 2.31,-1.50003 0.86,-0.35999 1.75,-0.53998 2.67,-0.54 0.97999,2e-5 1.86999,0.16002 2.67,0.48 0.79999,0.30001 1.47999,0.74003 2.04001,1.32003 0.55998,0.56 0.98998,1.25 1.28999,2.07 0.29999,0.82 0.44999,1.75 0.45,2.79 -10e-6,0.18 -10e-6,0.36 0,0.54 -10e-6,0.18 -0.02,0.36 -0.06,0.54 l -12.21,0 c 0.02,0.9 0.18,1.74 0.48001,2.52 0.31999,0.76 0.74999,1.42 1.28999,1.98 0.56,0.54 1.22,0.97 1.98,1.29 0.78,0.3 1.64,0.45 2.58,0.45 0.95999,0 1.82999,-0.14 2.61,-0.42 0.77999,-0.3 1.50999,-0.68 2.19,-1.14 l 0.54001,1.02 c -0.66002,0.42 -1.42002,0.81 -2.28001,1.17 -0.86001,0.34 -1.92001,0.51 -3.18,0.51 -1.04,0 -2.02,-0.17 -2.94,-0.51 -0.92,-0.34 -1.73,-0.83 -2.43,-1.47 -0.68,-0.66 -1.22,-1.45 -1.61999,-2.37 -0.40001,-0.94 -0.60001,-2 -0.60001,-3.18 m 12.36001,-0.93 c -2e-5,-1.82 -0.47002,-3.19 -1.41001,-4.11 -0.92001,-0.94 -2.16001,-1.41 -3.71999,-1.41 -0.72001,0 -1.41001,0.13 -2.07,0.39 -0.66001,0.24 -1.25001,0.6 -1.77001,1.08 -0.52,0.48 -0.96,1.06 -1.32,1.74 -0.36,0.68 -0.59,1.45 -0.69,2.31 l 10.98001,0"
         style="font-size:30px;font-variant:normal;font-stretch:normal;font-family:Source Code Pro;-inkscape-font-specification:Source Code Pro"
         id="path3033"
         inkscape:connector-curvature="0" />
    </g>
  </g>
</svg>
